<?xml version="1.0" encoding="utf-8"?>
<!-- Generator: Adobe Illustrator 27.5.0, SVG Export Plug-In . SVG Version: 6.00 Build 0)  -->
<svg version="1.1" xmlns="http://www.w3.org/2000/svg" xmlns:xlink="http://www.w3.org/1999/xlink" x="0px" y="0px"
	 viewBox="0 0 800 800" style="enable-background:new 0 0 800 800;" xml:space="preserve">
<g id="BACKGROUND">
	<rect x="0.002" y="0" style="fill:#FFFFFF;" width="800" height="800"/>
</g>
<g id="OBJECTS">
	<path style="fill:#B8FAFF;" d="M331.335,666.887c-10.974-3.485-22.148-6.178-33.015-10.038
		c-10.426-3.703-20.587-8.04-30.536-12.877c-20.317-9.877-39.642-21.934-57.344-35.977c-35.904-28.485-65.192-64.532-86.958-104.794
		c-12.396-22.93-21.579-46.951-30.477-71.384c-1.584-4.349-8.09-2.682-7.006,1.931c10.673,45.444,34.339,89.102,62.795,125.788
		c28.655,36.942,64.935,67.995,106.366,89.768c11.549,6.069,23.527,11.349,35.766,15.868c12.224,4.513,24.991,8.884,37.939,10.663
		C334.624,676.628,337.205,668.751,331.335,666.887z"/>
	<path style="fill:#B8FAFF;" d="M696.977,408.629c6.858,94.879-43.753,189.981-127.585,237.065
		c-98.359,55.244-228.576,28.827-322.83-22.839C52.485,516.469,39.513,186.752,284.607,137.578c18.181-3.648,36.711-5.58,55.245-6
		c47.02-1.067,91.738,7.899,137.319,17.851c43.817,9.567,90.104,16.729,127.549,43.278
		C664.892,235.372,691.931,338.831,696.977,408.629z"/>
	<g>
		<path style="fill:#F5C818;" d="M161.456,178.574c-8.526,9.292-19.867,17.434-27.574,27.237c-4.02,5.113-1.852,8.772-0.023,15.328
			c1.884,6.758,4.118,13.419,6.689,19.948c1.799,4.569,4.556,9.71,9.421,10.376c1.363,0.187,2.745-0.02,4.104-0.226
			c29.126-4.417,58.252-8.835,87.378-13.252c10.832-1.643,21.678-3.28,32.396-5.572c4.879-1.043,10.745-1.708,15.234-3.953
			c2.94-1.47,4.414-3.831,7.934-4.184c-0.845-14.41-3.055-29.33-6.73-43.301c-2.602-9.89-11.272-12.868-20.611-15.775
			c-12.776-5.694-26.195-9.55-39.066-14.97c-11.898-5.011-23.447-10.389-34.211-17.594
			C199.082,134.434,165.21,174.482,161.456,178.574z"/>
		<path style="fill:#1BB9C2;" d="M288.34,230.834c-12.674,3.653-25.518,6.719-38.476,9.185c-9.718,1.849-19.497,3.36-29.273,4.87
			c-22.225,3.434-44.45,6.867-66.675,10.301c-1.413-28.483-14.651-55.114-18.434-83.381c22.874-4.368,45.726-8.854,68.577-13.342
			c22.387-4.396,45.71-11.226,68.398-13.131C277.382,144.944,293.626,229.31,288.34,230.834z"/>
		<path style="fill:#D65331;" d="M290.118,185.994c0.241,0.083,0.468,0.204,0.672,0.37c0.794,0.642,1.044,1.726,1.246,2.727
			c3.06,15.201,4.498,30.593,6.412,46.013c1.319,10.628,5.964,20.572,6.573,31.447c-11.79,4.138-25.3,5.59-37.649,7.819
			c-13.937,2.516-27.912,4.814-41.909,6.972c-23.072,3.558-49.466,11.298-72.446,10.775c-3.265-10.067-25.933-77.326-18.023-80.826
			c3.798-1.68,17.134,3.525,21.39,4.42c7.595,1.598,15.183,3.224,22.766,4.879c15.191,3.316,29.47,9.206,45.189,10.676
			c1.029,0.096,2.088,0.177,3.079-0.117c1.168-0.347,2.12-1.177,3.052-1.963c6.251-5.275,13.678-8.75,20.07-13.591
			c7.498-5.679,15.086-11.303,22.718-16.844c5.036-3.656,9.143-8.477,13.886-12.148
			C287.975,185.961,289.156,185.664,290.118,185.994z"/>
		<path style="fill:#AD371B;" d="M305.742,262.079c-26.047-11.605-52.6-22.008-79.598-31.185c-1.508-0.513-2.739,0.23-3.348,1.314
			c-0.361,0.093-0.723,0.271-1.075,0.552c-23.091,18.45-46.183,36.901-69.274,55.351c-2.804,2.24,0.744,6.544,3.554,4.298
			c23.091-18.45,46.183-36.901,69.274-55.351c0.165-0.132,0.305-0.273,0.428-0.418c26.46,9.046,52.493,19.263,78.037,30.644
			C307.029,268.75,309.011,263.535,305.742,262.079z"/>
		<path style="fill:#FFFFFF;" d="M178.814,180.397c-7.694-0.495-16.405,1.774-23.947,3.191c-0.978,0.184-0.729,1.603,0.247,1.513
			c7.654-0.704,16.631-0.916,23.898-3.494C179.609,181.397,179.419,180.436,178.814,180.397z"/>
		<path style="fill:#FFFFFF;" d="M261.478,175.646c-9.023,0.436-18.176,3.088-27.031,4.827c-8.985,1.765-17.968,3.537-26.955,5.295
			c-8.627,1.688-17.257,3.357-25.882,5.051c-8.614,1.692-17.571,2.872-25.908,5.667c-0.54,0.181-0.215,0.923,0.272,0.892
			c9.072-0.572,18.142-2.971,27.05-4.71c8.987-1.754,17.969-3.536,26.955-5.29c8.627-1.685,17.255-3.365,25.882-5.047
			c8.58-1.673,17.701-2.653,25.958-5.561C262.504,176.529,262.089,175.617,261.478,175.646z"/>
		<path style="fill:#FFFFFF;" d="M268.643,191.659c-17.353,3.328-34.656,6.92-51.971,10.442
			c-17.27,3.512-34.856,6.367-51.907,10.832c-1.195,0.313-0.951,2.109,0.315,1.926c17.438-2.523,34.738-6.746,52.005-10.236
			c17.321-3.501,34.659-6.932,51.941-10.626C270.509,193.681,270.149,191.37,268.643,191.659z"/>
		<path style="fill:#FFFFFF;" d="M244.829,212.031c-7.835,1.594-15.624,3.451-23.421,5.218c-7.017,1.59-14.716,2.545-21.323,5.447
			c-0.605,0.266-0.254,1.04,0.313,1.024c7.471-0.214,15.179-2.754,22.457-4.366c7.452-1.651,14.934-3.222,22.348-5.035
			C246.633,213.968,246.306,211.73,244.829,212.031z"/>
	</g>
	<path style="fill:#2199A1;" d="M589.337,484.978c-16.828,24.386-53.771,35.83-79.945,46.752c-5.967,2.49-13.893,2.304-17.071,8.084
		c-3.174,5.771-3.126,13.908-2.207,20.222c1.138,7.813,4.095,15.24,7.344,22.436c-8.296-0.191-15.14-6.126-22.405-10.135
		c-6.773-3.737-13.591-7.457-19.921-11.922c-6.017-4.244-10.942-9.8-16.989-13.958c-2.717-1.868-7.005-0.611-10.848-0.198
		c-9.346,1.004-18.702,1.934-28.071,2.695c-18.403,1.494-36.88,2.357-55.345,1.832c-37.29-1.061-74.232-8.338-107.915-24.753
		c-27.709-13.505-62.417-42.794-71.621-73.13c-2.129-7.018-2.962-14.355-3.686-21.662c-7.333-73.996,50.948-141.648,119.138-162.477
		c27.777-8.485,57.156-12.559,86.158-13.256c7.207-0.173,14.249-0.505,21.187-0.815c67.224-3.007,129.041,9.283,184.135,50.061
		c25.043,18.536,43.217,46.968,47.743,77.964C623.734,415.011,607.654,458.435,589.337,484.978z"/>
	<path style="fill:#1BB9C2;" d="M602.337,474.978c-16.828,24.386-53.771,35.83-79.945,46.752
		c-8.782,3.665-22.823,4.973-27.253,14.062c-6.088,12.492-5.339,33.44,2.556,45.208c-24.714-6.306-34.85-25.916-47.226-45.862
		c-69.467,7.814-136.307,12.669-201.506-19.105c-27.709-13.505-62.417-42.794-71.621-73.13c-2.129-7.018-2.962-14.355-3.686-21.662
		c-7.333-73.996,50.948-141.648,119.138-162.477c27.777-8.485,57.156-12.559,86.158-13.256c7.207-0.173,14.249-0.505,21.187-0.815
		c67.224-3.007,129.041,9.283,184.135,50.061c25.043,18.536,43.217,46.968,47.743,77.964
		C636.734,405.011,620.654,448.435,602.337,474.978z"/>
	<text transform="matrix(1 0 0 1 234.5186 439.9947)" style="fill:#FFFFFF; font-family:'Amatic-Bold'; font-size:116.3631px;">CONTACT US</text>
	<g>
		<path style="fill:#FBFFEA;" d="M186.158,587.507c-0.282-0.556-0.563-1.113-0.845-1.669"/>
		<path style="fill:#2199A1;" d="M264.061,619.4c6.502,51.006-57.021,100.305-106.474,80.884
			c-36.352-14.277-55.378-56.808-43.463-93.62c13.396-41.389,65.738-60.986,104.963-44.625
			C243.099,572.055,260.72,593.184,264.061,619.4z"/>
		<path style="fill:#1BB9C2;" d="M267.061,613.4c6.502,51.006-57.021,100.305-106.474,80.884
			c-36.352-14.277-55.378-56.808-43.463-93.62c13.396-41.389,65.738-60.986,104.963-44.625
			C246.099,566.055,263.72,587.184,267.061,613.4z"/>
		<path style="fill:#F5C818;" d="M249.059,643.508c-17.085,34.418-72.751,61.85-104.874,29.456
			c-17.988-18.14-23.166-47.055-15.919-71.134c1.85-6.148,4.487-12.146,8.692-16.863c4.754-5.333,11.202-8.713,17.539-11.928
			c12.541-6.362,25.45-12.576,39.44-14.493c13.991-1.917,29.441,1.058,40.031,11.078c6.209,5.875,10.321,13.703,13.486,21.685
			C254.12,608.122,256.892,627.727,249.059,643.508z"/>
		<path style="fill:#D65331;" d="M162.003,577.257c-0.716-0.446-1.83-0.038-1.801,0.911c0.096,3.236,2.469,6.85,4.004,9.632
			c0.551,0.998,1.487,1.392,2.54,1.294c0.718-0.067,1.069-0.456,1.467-1.012c0.44-0.616,0.482-1.678,0.082-2.352
			C166.697,583.04,164.688,578.929,162.003,577.257z"/>
		<path style="fill:#D65331;" d="M210.789,661.718c-0.905-1.68-1.63-3.908-3.578-4.437c-0.761-0.206-1.644,0.108-1.865,0.944
			c-0.555,2.101,1.004,3.895,2.097,5.643c1.122,1.794,2.279,3.831,3.981,5.095c0.939,0.697,1.947-0.275,1.832-1.264
			C213.015,665.615,211.774,663.547,210.789,661.718z"/>
		<path style="fill:#D65331;" d="M150.031,642.289c-2.339-0.276-4.231,1.565-6.107,2.753c-2.093,1.326-4.395,2.587-6.049,4.476
			c-0.718,0.819-0.172,2.484,1.094,2.163c2.578-0.653,4.837-2.177,7.096-3.53c1.943-1.164,4.235-1.963,5.075-4.211
			C151.429,643.169,150.768,642.376,150.031,642.289z"/>
		<path style="fill:#D65331;" d="M233.621,595.73c-2.91,0.259-6.997,3.196-7.628,6.207c-0.196,0.936,0.644,1.734,1.529,1.352
			c1.282-0.555,2.27-1.569,3.444-2.315c1.221-0.776,2.61-1.186,3.824-1.93C236.464,598.016,235.558,595.557,233.621,595.73z"/>
		<path style="fill:#D65331;" d="M202.466,613.717c-3.492,0.978-6.517,3.328-9.634,5.149c-1.43,0.836-2.857,1.67-4.265,2.533
			c-0.899-0.986-2.136-1.655-3.39-1.78c-0.052-0.008-0.105-0.006-0.158-0.012c-0.085-0.005-0.17-0.015-0.254-0.015
			c-0.539-0.04-1.079-0.002-1.603,0.105c-1.468-3.186-3.22-6.254-4.861-9.358c-2.223-4.205-3.921-9.459-7.879-12.196
			c-0.719-0.497-1.905-0.011-1.859,0.941c0.232,4.836,3.672,8.973,6.065,13.114c1.812,3.137,3.529,6.371,5.523,9.403
			c-2.911,3.914,1.623,10.935,6.708,8.402c1.903-0.948,3.151-3.096,3.072-5.278c1.79-0.92,3.552-1.895,5.322-2.86
			c2.945-1.606,6.259-2.867,8.715-5.18C205.096,615.622,204.101,613.259,202.466,613.717z"/>
		<path style="fill:#D65331;" d="M139.418,623.611c-0.848-0.845-1.984-0.681-3.055-0.558c-1.148,0.131-2.525,0.151-3.526,0.76
			c-0.657,0.4-0.622,1.416,0.154,1.711c1.101,0.418,2.388,0.22,3.525,0.15c1.091-0.066,2.344-0.046,2.999-1.052
			C139.701,624.337,139.673,623.865,139.418,623.611z"/>
		<path style="fill:#D65331;" d="M142.852,602.381c-0.99-0.667-2.051-1.055-3.203-1.232c-0.692-0.107-0.998,0.95-0.4,1.308
			c0.859,0.513,1.702,1.107,2.435,1.799c0.665,0.628,1.314,1.484,2.293,1.347c0.26-0.036,0.464-0.251,0.545-0.495
			C144.904,603.955,143.696,602.949,142.852,602.381z"/>
		<path style="fill:#D65331;" d="M162.556,660.982c-0.949,0.724-1.245,2.277-1.56,3.395c-0.354,1.254-0.708,2.529-0.758,3.85
			c-0.035,0.946,1.215,1.386,1.709,0.599c0.689-1.096,1.107-2.349,1.514-3.585c0.364-1.105,0.982-2.538,0.616-3.726
			C163.855,660.796,163.132,660.543,162.556,660.982z"/>
		<path style="fill:#D65331;" d="M185.772,665.333c-0.608,1.372-0.477,2.857-0.371,4.352c0.099,1.392,0.151,2.847,0.83,4.108
			c0.406,0.754,1.328,0.589,1.632-0.1c0.576-1.308,0.489-2.908,0.44-4.332c-0.05-1.445-0.089-2.832-0.795-4.135
			C187.073,664.425,186.097,664.601,185.772,665.333z"/>
		<path style="fill:#D65331;" d="M231.52,641.917c-0.984-0.39-2.07-0.444-3.095-0.364c-0.94,0.074-1.001,1.681-0.078,1.901
			c0.979,0.233,1.724,0.702,2.575,1.237c0.794,0.499,2.25,1.096,2.631-0.177C233.919,643.291,232.471,642.294,231.52,641.917z"/>
		<path style="fill:#D65331;" d="M242.219,619.016c-1.179,0.045-2.281,0.407-3.396,0.76c-0.947,0.299-2.032,0.596-2.365,1.639
			c-0.097,0.303-0.026,0.711,0.211,0.945c0.792,0.782,1.802,0.616,2.808,0.491c1.142-0.142,2.355-0.314,3.406-0.78
			C244.235,621.471,243.794,618.956,242.219,619.016z"/>
		<path style="fill:#D65331;" d="M192.847,569.323c-0.913,1.503-1.091,4.145,0.259,5.543c0.635,0.657,2.086,0.4,2.001-0.692
			c-0.058-0.739-0.305-1.432-0.428-2.165c-0.114-0.687-0.077-1.368-0.037-2.056C194.701,568.96,193.35,568.494,192.847,569.323z"/>
		<path style="fill:#D65331;" d="M218.012,578.251c-1.089,0.474-1.832,1.49-2.577,2.395c-0.824,1-1.613,2.032-2.416,3.051
			c-0.743,0.943,0.782,2.241,1.621,1.415c1.598-1.575,4.109-3.343,4.821-5.58C219.743,578.641,218.79,577.913,218.012,578.251z"/>
	</g>
	<path style="fill:#D65331;" d="M497.636,647.196c-57.975,19.076-124.298,34.524-180.4,1.576
		c-11.228-6.594-21.475-14.873-29.935-24.795c-5.309-6.226-10.505-13.612-14.148-21.454c4.583-2.009,8.795-4.653,12.221-8.11
		c7.019-7.086,8.893-18.825,0.991-26.147c-6.816-6.316-16.528-2.916-19.927,5.091c-3.7,8.714-1.695,18.19,1.705,26.639
		c-2.078,0.817-4.059,1.464-5.784,1.918c-29.888,7.865-61.494-3.813-86.931-19.22c-23.732-14.374-45.11-32.978-62.712-54.417
		c-35.709-43.494-54.24-100.073-43.979-156.118c4.999-27.305,16.553-53.61,34.803-74.674c19.17-22.126,44.497-37.884,71.158-49.447
		c29.739-12.898,61.315-20.658,92.586-28.817c16.285-4.249,32.553-8.614,48.545-13.878c13.544-4.458,27.375-9.289,39.345-17.206
		c0.948-0.627,1.886-1.301,2.818-1.998c14.404,2.418,29.659,1.312,43.002-2.779c21.948-6.73,39.231-23.744,40.121-47.612
		c1.034-27.747-17.202-52.485-26.127-77.655c-6.695-18.88-7.215-38.626-3.104-57.646h-4.158c-0.426,2.034-0.809,4.09-1.142,6.172
		c-2.213,13.856-2.016,28.077,1.326,41.741c3.414,13.959,9.867,26.982,15.819,39.983c11.377,24.849,22.934,56.423-0.539,78.344
		c-15.682,14.646-39.651,18.68-60.87,15.913c16.186-14.495,27.245-38.85,12.493-58.068c-13.245-17.254-40.31-19.349-54.225-1.91
		c-6.383,7.999-9.391,18.709-7.683,28.841c1.906,11.306,10.042,20.292,19.728,25.865c6.177,3.554,13.011,6.121,20.148,7.777
		c-14.954,9.828-34.015,15.368-49.813,20.144c-60.202,18.199-125.947,27.257-177.356,66.334
		c-44.448,33.786-66.605,87.849-63.391,143.156c3.204,55.13,32.048,105.636,72.426,142.299
		c20.904,18.98,45.185,35.674,72.047,44.873c13.62,4.664,28.183,7.305,42.604,6.133c6.617-0.538,13.844-1.785,20.529-4.207
		c5.008,10.855,12.088,20.715,20.536,29.156c18.04,18.026,41.972,29.957,66.778,35.346c30.782,6.687,62.938,3.273,93.23-4.242
		c16.255-4.032,32.064-9.388,47.662-15.456C498.915,648.3,498.57,646.889,497.636,647.196z M352.37,180.769
		c-13.034-3.154-26.801-9.684-33.065-22.252c-5.776-11.59-2.649-26.29,6.143-35.51c9.386-9.844,23.935-11.053,35.711-4.865
		c13.233,6.953,18.826,21.416,15.319,35.731c-2.927,11.951-9.971,20.942-19.084,27.959
		C355.694,181.519,354.016,181.167,352.37,180.769z M268.991,590.305c-1.082-5.246-1.113-11.565,1.445-16.406
		c3.132-5.928,10.419-6.785,14.567-1.338c8.788,11.54-2.607,20.925-13.534,26.007C270.417,595.844,269.564,593.082,268.991,590.305z
		"/>
	<g>
		<path style="fill:#D65331;" d="M637.362,669.128c-22.68,13.57-48.46,22.24-74.12,23.71c-29.22,1.68-58.3-5.98-82.5-26.37
			c-0.65-0.55-1.29-1.1-1.93-1.67c-1.15-1.03-2.28-2.11-3.34-3.23c-2.84-3-5.2-6.37-6.31-10.31c-1.95-6.91,0.38-14.47,4.59-20.28
			c4.2-5.81,10.1-10.15,16.03-14.18c9.73-6.59,20.2-12.74,31.83-14.44c10.15-1.48,21.4,1.12,28.51,8.26
			c1.04,1.04,1.99,2.18,2.83,3.42c0.11,0.15,0.21,0.31,0.3,0.47c1.92,2.92,3.26,6.21,5.24,9.1c5.4,7.85,15.24,11.85,24.77,11.95
			c9.53,0.09,18.79-3.26,27.24-7.65c20.34-10.57,37.07-27.22,50.3-45.94c5.98-8.46,11.46-19.49,6.76-28.73
			c-2.48-4.89-7.23-7.97-11.66-11.33c-0.96-0.73-1.91-1.47-2.82-2.25c-0.54-0.46-1.05-0.93-1.54-1.42
			c-16.82-16.68-6.06-47.97,6.26-63.66c8.93-11.37,25.82-30.36,42.45-26.57c2.1,0.48,4,1.58,5.79,2.78
			c5.45,3.65,9.72,8.21,13.26,13.29c1.06,1.5,2.04,3.05,2.98,4.63c5.37,9.1,9.08,19.41,13.39,29.09
			C765.152,563.938,688.182,638.728,637.362,669.128z"/>
		<g>
			<path style="fill:#AD371B;" d="M645.971,653.46c-22.68,13.566-48.456,22.238-74.122,23.709
				c-29.218,1.675-58.293-5.983-82.492-26.377c-4.95-4.172-9.828-8.981-11.583-15.209c-0.823-2.92-0.874-5.958-0.349-8.932
				c-1.322,1.355-2.561,2.787-3.676,4.328c-4.204,5.81-6.533,13.374-4.588,20.277c1.756,6.228,6.634,11.037,11.584,15.209
				c24.199,20.395,53.274,28.052,82.492,26.377c25.665-1.471,51.441-10.143,74.121-23.709
				c32.094-19.196,74.601-56.094,94.159-97.335C709.81,606.566,673.937,636.733,645.971,653.46z"/>
			<path style="fill:#AD371B;" d="M653.081,539.661c5.068,4.344,11.46,7.626,14.482,13.578c2.376,4.678,2.141,9.815,0.558,14.846
				c0.431-0.595,0.868-1.185,1.291-1.784c5.983-8.463,11.456-19.493,6.763-28.734c-3.023-5.951-9.414-9.234-14.483-13.578
				c-13.485-11.559-11.82-31.393-5.181-47.702C644.407,492.937,634.748,523.948,653.081,539.661z"/>
		</g>
		<path style="fill:#AD371B;" d="M722.282,468.708c-5.42,1.23-10.72,2.98-15.81,5.22c-9.85,4.32-19.03,10.48-26.61,18.15
			c-7.96,8.06-14.23,17.67-18.5,28.15c-2.93,7.18-4.32,14.35-5.46,21.68c-0.96-0.73-1.91-1.47-2.82-2.25
			c-0.54-0.46-1.05-0.93-1.54-1.42c2.3-18.55,13.05-37.46,25.34-49.75c8-8,17.44-14.46,27.82-19c4.13-1.81,9.29-3.91,14.6-5.41
			C720.362,465.578,721.342,467.128,722.282,468.708z"/>
		<path style="fill:#AD371B;" d="M553.252,614.508c-2.99,0.69-5.96,1.42-8.91,2.23c-10.18,2.78-20.22,6.32-29.57,11.25
			c-8.9,4.71-17.2,10.78-24.02,18.2c-5.27,5.75-8.71,11.98-11.94,18.61c-1.15-1.03-2.28-2.11-3.34-3.23
			c5.97-15.15,20.97-27.96,33.97-35.58c10.04-5.88,21.03-9.98,32.2-13.13c2.81-0.8,5.64-1.54,8.48-2.24
			c1.04,1.04,1.99,2.18,2.83,3.42C553.062,614.188,553.162,614.348,553.252,614.508z"/>
		<path style="fill:#FFFFFF;" d="M726.599,517.035c-0.88-6.078-9.86-4.949-9.443,1.148c1.023,14.933-0.621,28.592-4.819,42.956
			c-2.015,6.894-4.132,13.396-7.689,19.672c-1.84,3.246-3.734,6.474-5.984,9.454c-1.828,2.42-3.766,4.129-4.325,7.15
			c-0.116,0.624,0.512,0.949,1.031,0.815c5.667-1.464,10.833-9.963,13.978-14.557c4.342-6.344,8.894-13.234,11.757-20.383
			C726.806,549.057,728.795,532.21,726.599,517.035z"/>
		<path style="fill:#FFFFFF;" d="M725.57,498.106c-0.234-0.912-0.729-1.834-1.508-2.407c-0.333-0.203-0.666-0.406-0.999-0.609
			c-0.76-0.331-1.551-0.449-2.374-0.354c-0.402-0.003-0.804-0.005-1.206-0.008c-1.198-0.008-2.366,0.877-3.12,1.735
			c-0.99,1.128-1.218,2.73-0.858,4.134c0.706,2.749,3.64,4.251,6.311,3.23c0.365-0.14,0.731-0.279,1.096-0.419
			C725.016,502.605,726.116,500.231,725.57,498.106z"/>
		<path style="fill:#FFFFFF;" d="M614.66,629.386c-5.576,1.526-10.766,4.969-16.111,7.209c-5.844,2.45-11.905,4.494-18.193,5.425
			c-12.107,1.792-23.797-0.878-33.223-8.802c-1.365-1.148-3.491,0.8-2.289,2.201c7.937,9.255,20.541,12.387,32.343,11.581
			c6.916-0.472,13.758-2.464,20.196-4.951c6.332-2.446,13.759-5.154,19.1-9.398C618.247,631.249,616.663,628.838,614.66,629.386z"/>
		<path style="fill:#FFFFFF;" d="M634.854,618.395c-0.183-0.561-0.782-0.996-1.354-1.07c-2.068-0.266-3.179,1.622-4.324,3.067
			c-1.157,1.459-2.467,3.053-2.895,4.892c-0.279,1.2,1.143,2.23,2.217,1.753c1.709-0.759,3.028-2.396,4.227-3.792
			C633.968,621.8,635.518,620.425,634.854,618.395z"/>
	</g>
	<g>
		<path style="fill:#1BB9C2;" d="M648.086,235.036c-5.676,8.169-11.351,16.339-17.027,24.508c-0.01-4.109-2.325-7.808-4.514-11.286
			c-11.911-18.924-22.394-38.748-31.329-59.246c9.81,6.797,17.784,15.854,26.329,24.185c8.19,7.986,16.974,15.363,26.254,22.05
			c-0.983-0.444-1.965-0.888-2.948-1.332"/>
		<path style="fill:#F5C818;" d="M540.952,133.924c19.785,37.066,34.271,75.429,59.463,109.058
			c2.302,2.662,34.852-7.266,38.13-7.741c13.969-2.023,34.408-7.005,48.272-8.13c-28.14-17.233-61.348-33.923-88.357-52.863
			c-9.894-6.938-19.788-13.875-29.682-20.813C562.078,148.738,544.718,140.978,540.952,133.924z"/>
		<path style="fill:#1BB9C2;" d="M545.813,139.342c27.985,28.4,55.969,56.8,83.955,85.201c2.514,2.551,5.47,4.359,8.12,6.685
			c1.594,1.399,3.185,4.248,5.116,5.015c0.789,0.314,1.675,0.203,2.516,0.085c3.994-0.562,6.225-2.5,10.197-3.204
			c-2.391,0.424-8.165-4.686-10.463-6.245c-5.15-3.493-9.851-8.026-14.641-11.999c-9.714-8.057-19.333-16.229-28.856-24.512
			C582.713,173.8,564.058,156.785,545.813,139.342z"/>
	</g>
	<path style="fill:#D1FCFF;" d="M567.987,332.239c-10.086-1.623-20.556-1.017-30.741-1.014l-32.998,0.008
		c-21.666,0.005-43.331,0.011-64.997,0.016c-42.997,0.01-85.996-0.064-128.993,0.033c-24.402,0.055-48.667,0.131-72.996,2.147
		c-1.932,0.16-1.936,2.847,0,3.008c43.152,3.576,86.718,2.152,129.993,2.162c42.998,0.01,85.996,0.021,128.993,0.031
		c11.999,0.003,23.999,0.006,35.998,0.009c11.806,0.003,24.051,0.868,35.741-1.013C570.653,337.196,570.655,332.668,567.987,332.239
		z"/>
	<path style="fill:#D1FCFF;" d="M561.676,460.862c-9.737-1.589-19.534-1.499-29.383-1.752c-10.316-0.265-20.63-0.344-30.949-0.373
		c-20.633-0.057-41.266-0.114-61.898-0.171c-41.265-0.114-82.531-0.009-123.796,0.002c-11.315,0.003-22.629,0.006-33.944,0.009
		c-11.343,0.003-23.483-1.03-34.624,1.382c-2.439,0.528-2.441,4.406,0,4.934c9.598,2.078,19.863,1.345,29.633,1.381
		c10.316,0.038,20.633,0.005,30.949,0.008c20.633,0.005,41.265,0.011,61.898,0.016c41.266,0.01,82.531-0.047,123.796-0.161
		c11.315-0.031,22.631-0.023,33.944-0.267c11.468-0.247,23.04-0.03,34.375-1.88C563.223,463.736,563.224,461.115,561.676,460.862z"
		/>
	<path style="fill:#D65331;" d="M711.17,435.443c-1.511-0.583-2.431,1.789-1.083,2.57c12.343,7.154,22.844,16.041,30.422,28.294
		c7.521,12.161,10.956,25.474,12.171,39.618c0.208,2.417,3.587,2.437,3.773,0C758.655,477.106,738.008,445.802,711.17,435.443z"/>
	<path style="fill:#D65331;" d="M566.316,589.31c-4.396-3.86-12.11-4.198-17.732-4.889c-7.224-0.887-14.638-0.991-21.883-0.284
		c-13.591,1.326-27.664,5.028-39.168,12.595c-0.999,0.657-0.382,2.555,0.867,2.056c12.462-4.975,24.818-9.085,38.301-10.057
		c6.182-0.446,12.372-0.386,18.533,0.322c3.685,0.424,7.346,1.04,10.962,1.867c2.965,0.678,5.781,1.876,8.837,1.491
		C566.43,592.234,567.631,590.465,566.316,589.31z"/>
	<path style="fill:#D65331;" d="M637.221,683.974c-4.497-0.193-9.459,4.132-13.432,6.073c-5.337,2.608-10.842,4.851-16.474,6.742
		c-10.987,3.688-22.422,6.055-33.964,7.084c-23.384,2.085-45.336-2.221-67.538-9.176c-1.208-0.378-1.999,1.456-0.867,2.056
		c20.674,10.962,46.131,14.032,69.208,12.235c11.761-0.916,23.409-3.229,34.618-6.909c5.329-1.749,10.561-3.818,15.656-6.163
		c4.368-2.011,12.299-4.502,14.441-9.068C639.491,685.526,638.751,684.04,637.221,683.974z"/>
	<path style="fill:#D65331;" d="M114.86,563.501c-9.118,8.023-15.826,18.815-19.7,30.275c-3.664,10.836-5.991,24.687-1.933,35.729
		c0.352,0.957,1.786,0.842,1.818-0.246c0.35-11.642-0.077-22.446,3.759-33.697c3.849-11.287,10.473-20.874,19.021-29.094
		C119.79,564.579,116.871,561.731,114.86,563.501z"/>
	<path style="fill:#D65331;" d="M261.261,665.402c-2.884,3.476-4.569,7.897-7.146,11.632c-2.939,4.259-6.387,8.155-10.219,11.631
		c-7.906,7.171-17.007,11.623-26.787,15.63c-1.57,0.643-0.984,2.78,0.698,2.531c10.441-1.543,20.307-7.164,28.264-13.916
		c3.885-3.297,7.385-7.027,10.473-11.079c3.14-4.12,7.126-9.337,7.891-14.583C264.672,665.615,262.625,663.758,261.261,665.402z"/>
	<path style="fill:#D65331;" d="M280.591,676.823c-3.398,1.881-5.721,5.535-8.454,8.232c-3.23,3.187-6.697,6.095-10.409,8.704
		c-1.753,1.232-0.132,4.121,1.703,2.914c3.868-2.543,7.557-5.352,10.9-8.561c2.909-2.792,6.696-6.145,7.654-10.217
		C282.175,677.087,281.329,676.414,280.591,676.823z"/>
	<path style="fill:#D65331;" d="M188.228,115.079c-0.624-3.071-1.313-6.123-2.15-9.143c-0.469-1.692-3.391-1.435-3.177,0.43
		c0.332,2.889,0.789,5.744,1.301,8.606c0.44,2.458,0.475,5.468,2.46,7.188c0.504,0.437,1.386,0.449,1.73-0.223
		C189.513,119.747,188.7,117.403,188.228,115.079z"/>
	<path style="fill:#D65331;" d="M155.575,132.759c-0.443-0.936-0.772-1.374-1.654-1.995c-0.791-0.557-1.633-1.023-2.378-1.647
		c-1.498-1.255-2.69-2.822-3.664-4.506c-0.852-1.472-3.369-0.502-2.806,1.183c0.77,2.305,2.03,4.323,3.773,6.02
		c0.796,0.775,1.704,1.543,2.679,2.089c1.241,0.695,2.136,0.834,3.434,0.371C155.624,134.036,155.874,133.391,155.575,132.759z"/>
	<path style="fill:#D65331;" d="M133.207,157.846c-2.338-2.594-5.659-3.858-8.776-5.303c-3.119-1.447-6.285-3.012-9.581-4.009
		c-1.148-0.347-1.634,1.193-0.768,1.821c3.082,2.233,6.588,3.94,9.957,5.701c2.796,1.461,5.394,2.96,8.571,3.232
		C133.388,159.353,133.656,158.344,133.207,157.846z"/>
	<path style="fill:#D65331;" d="M113.391,197.609c-1.624-1.574-3.957-1.429-6.114-1.683c-2.851-0.336-5.741-0.765-8.615-0.748
		c-1.317,0.008-1.564,1.904-0.308,2.279c2.757,0.822,5.653,1.221,8.487,1.697c2.16,0.363,4.333,1.135,6.342,0.075
		C113.767,198.92,113.852,198.056,113.391,197.609z"/>
	<path style="fill:#D65331;" d="M110.354,229.154c-2.842-1.234-6.676-0.6-9.692-0.41c-2.049,0.129-2.053,3.058,0,3.188
		c3.016,0.19,6.85,0.824,9.692-0.41C111.252,231.132,111.252,229.544,110.354,229.154z"/>
	<path style="fill:#D65331;" d="M237.667,108.061c-0.194-0.611-0.946-1.006-1.532-0.623c-1.962,1.28-2.449,3.791-3.187,5.918
		c-0.992,2.859-1.91,5.674-2.541,8.636c-0.292,1.372,1.667,2.379,2.378,1.002c1.292-2.505,2.302-5.039,3.289-7.679
		C236.91,113.081,238.423,110.447,237.667,108.061z"/>
	<path style="fill:#D65331;" d="M286.998,125.118c-2.078-0.625-4.39,0.568-6.168,1.581c-2.03,1.157-3.778,2.752-5.262,4.545
		c-1.247,1.507,0.762,3.631,2.188,2.188c1.451-1.469,3.071-2.649,4.884-3.636c1.6-0.87,3.608-1.261,4.917-2.563
		C288.245,126.549,287.902,125.39,286.998,125.118z"/>
	<path style="fill:#D65331;" d="M301.534,156.726c-1.704,1.347-3.093,2.686-5.245,3.296c-1.514,0.429-1.285,2.953,0.383,2.831
		c2.908-0.212,6.173-1.891,6.949-4.912C303.956,156.64,302.467,155.988,301.534,156.726z"/>
	<path style="fill:#1BB9C2;" d="M431.728,560.178c-11.095-0.116-22.467,2.206-33.573,2.888c-11.546,0.709-23.121,0.99-34.689,0.85
		c-22.782-0.277-45.475-2.322-68.124-4.648c-1.827-0.188-2.212,2.806-0.433,3.2c22.5,4.974,45.543,7.032,68.557,7.38
		c11.569,0.175,23.14-0.096,34.689-0.805c11.15-0.685,23.466-0.749,34.258-3.801C435.212,564.451,434.655,560.209,431.728,560.178z"
		/>
	<path style="fill:#1BB9C2;" d="M573.645,261.331c-6.373-4.858-15.865-7.43-23.323-10.224c-8.365-3.134-16.85-5.944-25.431-8.426
		c-17.052-4.934-34.467-8.554-52.062-10.894c-17.712-2.355-35.598-3.418-53.463-3.027c-17.232,0.376-36.016,1.18-52.625,6.15
		c-0.811,0.243-0.693,1.56,0.206,1.519c17.218-0.787,34.234-3.464,51.526-3.771c17.565-0.313,35.159,0.612,52.584,2.86
		c17.542,2.263,34.918,5.874,51.919,10.75c8.3,2.38,16.513,5.066,24.614,8.055c3.911,1.443,7.796,2.956,11.652,4.541
		c4.295,1.765,8.662,4.303,13.23,5.253C574.241,264.483,574.995,262.36,573.645,261.331z"/>
	<path style="fill:#1BB9C2;" d="M691.372,306.419c-8.201-7.308-17.55-13.203-25.672-20.604c-3.836-3.495-7.416-7.33-10.341-11.628
		c-2.989-4.392-4.672-9.205-6.792-14.025c-0.352-0.802-1.62-0.371-1.602,0.434c0.333,14.703,15.017,26.957,25.537,35.22
		c12.947,10.171,28.405,20.546,32.912,37.416c2.102,7.867,0.894,16.206-4.19,22.577c-1.25-4.231-4.093-7.854-9.304-10.195
		c-5.56-2.497-12.103-1.359-15.682,3.81c-3.203,4.627-3.014,10.784,1.501,14.482c6.626,5.428,14.346,3.857,20.545-0.608
		c-0.089,7.723-4.543,15.005-8.238,21.592c-1.218,2.172,2.026,4.06,3.332,1.948c4.312-6.975,9.142-17.62,8.588-26.701
		c3.303-3.34,5.846-7.428,7.035-11.358C713.898,332.599,702.874,316.669,691.372,306.419z M690.391,362.916
		c-4.647,0.976-12.079-0.313-12.589-6.277c-0.489-5.719,5.51-9.479,10.618-8.225c4.77,1.171,8.116,5.276,9.29,9.903
		c0.076,0.298,0.121,0.594,0.181,0.892C695.708,360.991,693.165,362.333,690.391,362.916z"/>
</g>
<g id="DESIGNED_BY_FREEPIK">
	<g>
		<path style="fill:#2199A1;" d="M286.024,774.286v-0.257c-0.349,0.398-0.692,0.724-1.031,0.973
			c-0.338,0.251-0.706,0.441-1.102,0.57c-0.396,0.132-0.827,0.195-1.296,0.195c-0.621,0-1.196-0.131-1.725-0.393
			c-0.528-0.263-0.986-0.639-1.372-1.126c-0.387-0.487-0.68-1.06-0.879-1.719c-0.199-0.659-0.299-1.371-0.299-2.137
			c0-1.621,0.396-2.886,1.188-3.791c0.792-0.904,1.833-1.357,3.125-1.357c0.747,0,1.377,0.129,1.89,0.384
			c0.513,0.257,1.013,0.652,1.501,1.183v-3.827c0-0.532,0.105-0.934,0.318-1.206c0.211-0.273,0.514-0.408,0.907-0.408
			c0.393,0,0.694,0.125,0.907,0.375c0.212,0.251,0.318,0.618,0.318,1.106v11.436c0,0.494-0.113,0.864-0.342,1.111
			c-0.228,0.246-0.522,0.37-0.883,0.37c-0.354,0-0.647-0.128-0.879-0.384C286.139,775.125,286.024,774.76,286.024,774.286z
			 M280.923,770.477c0,0.703,0.109,1.301,0.328,1.795c0.219,0.494,0.518,0.866,0.897,1.115c0.38,0.251,0.795,0.377,1.244,0.377
			c0.456,0,0.872-0.119,1.25-0.357c0.376-0.236,0.677-0.602,0.902-1.091c0.225-0.491,0.337-1.105,0.337-1.839
			c0-0.691-0.112-1.284-0.337-1.782c-0.225-0.496-0.528-0.876-0.912-1.14c-0.383-0.262-0.803-0.393-1.258-0.393
			c-0.475,0-0.899,0.135-1.273,0.403c-0.374,0.269-0.663,0.654-0.869,1.158C281.026,769.228,280.923,769.812,280.923,770.477z"/>
		<path style="fill:#2199A1;" d="M297.458,771.133h-5.071c0.006,0.588,0.124,1.107,0.356,1.557c0.23,0.45,0.538,0.789,0.921,1.017
			c0.383,0.228,0.806,0.341,1.268,0.341c0.31,0,0.593-0.035,0.85-0.107c0.257-0.074,0.505-0.187,0.746-0.343
			c0.241-0.154,0.462-0.321,0.664-0.499c0.202-0.178,0.464-0.419,0.788-0.723c0.133-0.113,0.323-0.171,0.571-0.171
			c0.266,0,0.48,0.074,0.645,0.22c0.165,0.146,0.248,0.351,0.248,0.617c0,0.234-0.093,0.507-0.275,0.821
			c-0.185,0.313-0.462,0.614-0.832,0.902c-0.371,0.288-0.835,0.526-1.397,0.717c-0.56,0.19-1.204,0.285-1.933,0.285
			c-1.664,0-2.96-0.476-3.884-1.425s-1.386-2.238-1.386-3.865c0-0.767,0.113-1.478,0.341-2.132c0.228-0.656,0.561-1.218,0.997-1.687
			c0.437-0.469,0.975-0.827,1.615-1.078c0.639-0.25,1.349-0.374,2.127-0.374c1.013,0,1.882,0.212,2.606,0.641
			c0.726,0.427,1.27,0.979,1.63,1.656c0.36,0.678,0.542,1.369,0.542,2.07c0,0.653-0.187,1.075-0.56,1.269
			C298.662,771.036,298.136,771.133,297.458,771.133z M292.386,769.661h4.702c-0.063-0.887-0.303-1.551-0.717-1.99
			c-0.415-0.44-0.96-0.66-1.638-0.66c-0.646,0-1.177,0.223-1.591,0.669C292.727,768.125,292.476,768.787,292.386,769.661z"/>
		<path style="fill:#2199A1;" d="M309.273,772.375c0,0.716-0.173,1.329-0.523,1.839c-0.348,0.51-0.862,0.896-1.543,1.159
			c-0.68,0.263-1.508,0.393-2.483,0.393c-0.931,0-1.728-0.143-2.394-0.428c-0.665-0.284-1.156-0.642-1.472-1.067
			c-0.317-0.429-0.475-0.857-0.475-1.288c0-0.285,0.101-0.528,0.304-0.731c0.202-0.202,0.459-0.304,0.77-0.304
			c0.272,0,0.48,0.066,0.626,0.199c0.146,0.133,0.286,0.32,0.417,0.56c0.266,0.464,0.585,0.807,0.956,1.036
			c0.37,0.227,0.875,0.342,1.515,0.342c0.519,0,0.945-0.116,1.277-0.347c0.332-0.233,0.498-0.496,0.498-0.794
			c0-0.456-0.172-0.787-0.518-0.996c-0.345-0.209-0.914-0.409-1.705-0.6c-0.893-0.221-1.619-0.454-2.18-0.698
			c-0.561-0.242-1.008-0.565-1.344-0.963c-0.335-0.399-0.503-0.891-0.503-1.473c0-0.518,0.155-1.01,0.465-1.473
			c0.311-0.461,0.768-0.83,1.374-1.106c0.603-0.276,1.333-0.414,2.188-0.414c0.671,0,1.275,0.069,1.809,0.21
			c0.536,0.138,0.983,0.326,1.34,0.561c0.358,0.233,0.63,0.493,0.816,0.777c0.187,0.285,0.28,0.564,0.28,0.837
			c0,0.297-0.1,0.541-0.298,0.732c-0.199,0.188-0.482,0.285-0.85,0.285c-0.266,0-0.492-0.076-0.679-0.229
			c-0.187-0.151-0.4-0.379-0.641-0.683c-0.196-0.253-0.426-0.456-0.693-0.608c-0.266-0.152-0.627-0.227-1.083-0.227
			c-0.469,0-0.857,0.099-1.168,0.3c-0.31,0.198-0.465,0.446-0.465,0.744c0,0.273,0.114,0.496,0.341,0.67
			c0.229,0.175,0.535,0.319,0.922,0.433c0.386,0.113,0.917,0.252,1.596,0.417c0.803,0.197,1.46,0.432,1.97,0.703
			c0.509,0.271,0.895,0.594,1.16,0.965C309.142,771.479,309.273,771.901,309.273,772.375z"/>
		<path style="fill:#2199A1;" d="M311.922,764.019c-0.361,0-0.669-0.111-0.926-0.333c-0.256-0.221-0.385-0.534-0.385-0.94
			c0-0.368,0.131-0.669,0.394-0.907s0.569-0.356,0.917-0.356c0.336,0,0.633,0.107,0.893,0.323c0.26,0.216,0.39,0.528,0.39,0.94
			c0,0.399-0.127,0.711-0.381,0.936C312.57,763.906,312.27,764.019,311.922,764.019z M313.204,766.697v7.493
			c0,0.519-0.124,0.913-0.371,1.179c-0.247,0.266-0.56,0.398-0.94,0.398s-0.689-0.136-0.926-0.408
			c-0.238-0.273-0.356-0.662-0.356-1.169v-7.418c0-0.512,0.118-0.898,0.356-1.158c0.237-0.26,0.546-0.39,0.926-0.39
			s0.693,0.13,0.94,0.39C313.081,765.874,313.204,766.235,313.204,766.697z"/>
		<path style="fill:#2199A1;" d="M324.563,767.125v7.531c0,0.861-0.093,1.603-0.277,2.224c-0.182,0.619-0.477,1.133-0.883,1.538
			c-0.405,0.404-0.936,0.706-1.59,0.901c-0.655,0.197-1.471,0.295-2.446,0.295c-0.893,0-1.69-0.125-2.393-0.375
			c-0.702-0.251-1.243-0.573-1.624-0.969c-0.379-0.395-0.57-0.803-0.57-1.221c0-0.316,0.108-0.575,0.324-0.773
			c0.215-0.2,0.475-0.3,0.778-0.3c0.38,0,0.712,0.168,0.997,0.503c0.139,0.171,0.283,0.345,0.432,0.519
			c0.149,0.175,0.314,0.323,0.494,0.447c0.181,0.122,0.398,0.214,0.65,0.275c0.253,0.059,0.545,0.09,0.874,0.09
			c0.671,0,1.192-0.093,1.563-0.28c0.371-0.187,0.63-0.448,0.779-0.784c0.149-0.334,0.236-0.693,0.261-1.077
			c0.025-0.384,0.044-0.999,0.057-1.849c-0.399,0.559-0.859,0.983-1.382,1.274c-0.522,0.291-1.145,0.437-1.866,0.437
			c-0.868,0-1.625-0.222-2.275-0.665c-0.648-0.443-1.147-1.064-1.495-1.861c-0.349-0.799-0.522-1.719-0.522-2.764
			c0-0.778,0.105-1.483,0.317-2.108c0.213-0.628,0.515-1.156,0.907-1.587c0.393-0.431,0.845-0.755,1.358-0.974
			c0.513-0.218,1.076-0.327,1.691-0.327c0.734,0,1.371,0.142,1.909,0.422c0.538,0.283,1.039,0.725,1.501,1.326v-0.353
			c0-0.449,0.11-0.797,0.332-1.045c0.222-0.246,0.507-0.37,0.855-0.37c0.5,0,0.832,0.164,0.997,0.489
			C324.48,766.04,324.563,766.51,324.563,767.125z M317.05,770.411c0,1.051,0.229,1.846,0.688,2.384
			c0.459,0.539,1.053,0.808,1.781,0.808c0.43,0,0.837-0.116,1.22-0.347c0.384-0.232,0.695-0.58,0.937-1.045
			c0.24-0.466,0.361-1.03,0.361-1.695c0-1.057-0.232-1.881-0.698-2.469c-0.466-0.589-1.078-0.884-1.838-0.884
			c-0.741,0-1.334,0.282-1.78,0.846C317.273,768.571,317.05,769.373,317.05,770.411z"/>
		<path style="fill:#2199A1;" d="M328.684,766.659v0.313c0.455-0.602,0.954-1.043,1.496-1.325c0.542-0.281,1.163-0.423,1.866-0.423
			c0.684,0,1.295,0.15,1.833,0.447c0.538,0.298,0.941,0.719,1.206,1.262c0.172,0.317,0.282,0.66,0.333,1.026
			c0.051,0.368,0.077,0.836,0.077,1.406v4.824c0,0.519-0.119,0.913-0.357,1.179c-0.237,0.266-0.546,0.398-0.926,0.398
			c-0.387,0-0.7-0.136-0.941-0.408c-0.241-0.273-0.361-0.662-0.361-1.169v-4.321c0-0.855-0.119-1.509-0.357-1.961
			c-0.238-0.452-0.71-0.68-1.42-0.68c-0.461,0-0.883,0.138-1.263,0.413c-0.38,0.276-0.659,0.655-0.836,1.136
			c-0.126,0.387-0.19,1.107-0.19,2.165v3.248c0,0.525-0.123,0.921-0.365,1.184c-0.244,0.263-0.559,0.393-0.945,0.393
			c-0.374,0-0.681-0.136-0.922-0.408c-0.24-0.273-0.361-0.662-0.361-1.169v-7.493c0-0.494,0.107-0.863,0.323-1.107
			c0.215-0.243,0.51-0.365,0.883-0.365c0.229,0,0.435,0.054,0.619,0.162c0.183,0.108,0.331,0.269,0.441,0.483
			C328.629,766.086,328.684,766.349,328.684,766.659z"/>
		<path style="fill:#2199A1;" d="M344.458,771.133h-5.071c0.007,0.588,0.125,1.107,0.356,1.557c0.231,0.45,0.538,0.789,0.921,1.017
			c0.382,0.228,0.805,0.341,1.267,0.341c0.311,0,0.594-0.035,0.851-0.107c0.255-0.074,0.504-0.187,0.746-0.343
			c0.24-0.154,0.461-0.321,0.665-0.499c0.202-0.178,0.464-0.419,0.788-0.723c0.133-0.113,0.323-0.171,0.57-0.171
			c0.266,0,0.482,0.074,0.646,0.22c0.165,0.146,0.247,0.351,0.247,0.617c0,0.234-0.091,0.507-0.275,0.821
			c-0.184,0.313-0.461,0.614-0.831,0.902c-0.371,0.288-0.835,0.526-1.396,0.717c-0.561,0.19-1.205,0.285-1.933,0.285
			c-1.665,0-2.96-0.476-3.885-1.425c-0.923-0.949-1.386-2.238-1.386-3.865c0-0.767,0.114-1.478,0.342-2.132
			c0.228-0.656,0.561-1.218,0.998-1.687c0.436-0.469,0.975-0.827,1.614-1.078c0.639-0.25,1.349-0.374,2.128-0.374
			c1.013,0,1.881,0.212,2.606,0.641c0.726,0.427,1.269,0.979,1.63,1.656c0.36,0.678,0.542,1.369,0.542,2.07
			c0,0.653-0.186,1.075-0.56,1.269C345.662,771.036,345.136,771.133,344.458,771.133z M339.387,769.661h4.701
			c-0.063-0.887-0.302-1.551-0.717-1.99c-0.415-0.44-0.961-0.66-1.638-0.66c-0.646,0-1.177,0.223-1.592,0.669
			C339.726,768.125,339.476,768.787,339.387,769.661z"/>
		<path style="fill:#2199A1;" d="M355.028,774.286v-0.257c-0.348,0.398-0.691,0.724-1.03,0.973c-0.339,0.251-0.706,0.441-1.102,0.57
			c-0.395,0.132-0.828,0.195-1.296,0.195c-0.622,0-1.196-0.131-1.724-0.393c-0.529-0.263-0.986-0.639-1.373-1.126
			c-0.387-0.487-0.679-1.06-0.878-1.719c-0.2-0.659-0.299-1.371-0.299-2.137c0-1.621,0.395-2.886,1.187-3.791
			c0.792-0.904,1.833-1.357,3.125-1.357c0.747,0,1.378,0.129,1.89,0.384c0.513,0.257,1.013,0.652,1.5,1.183v-3.827
			c0-0.532,0.106-0.934,0.319-1.206c0.211-0.273,0.515-0.408,0.907-0.408c0.392,0,0.694,0.125,0.907,0.375
			c0.212,0.251,0.318,0.618,0.318,1.106v11.436c0,0.494-0.114,0.864-0.342,1.111c-0.228,0.246-0.522,0.37-0.883,0.37
			c-0.354,0-0.647-0.128-0.879-0.384C355.144,775.125,355.028,774.76,355.028,774.286z M349.928,770.477
			c0,0.703,0.108,1.301,0.327,1.795c0.218,0.494,0.518,0.866,0.898,1.115c0.379,0.251,0.794,0.377,1.243,0.377
			c0.457,0,0.873-0.119,1.249-0.357c0.377-0.236,0.678-0.602,0.902-1.091c0.225-0.491,0.337-1.105,0.337-1.839
			c0-0.691-0.112-1.284-0.337-1.782c-0.224-0.496-0.528-0.876-0.912-1.14c-0.384-0.262-0.803-0.393-1.259-0.393
			c-0.474,0-0.899,0.135-1.272,0.403c-0.373,0.269-0.663,0.654-0.869,1.158C350.03,769.228,349.928,769.812,349.928,770.477z"/>
		<path style="fill:#2199A1;" d="M365.626,762.85v3.96c0.487-0.506,0.984-0.895,1.491-1.163c0.506-0.269,1.134-0.403,1.881-0.403
			c0.861,0,1.616,0.204,2.266,0.611c0.648,0.41,1.151,1.002,1.51,1.777c0.357,0.775,0.537,1.695,0.537,2.76
			c0,0.785-0.1,1.504-0.299,2.16c-0.2,0.655-0.49,1.224-0.869,1.704c-0.38,0.481-0.841,0.854-1.382,1.117
			c-0.542,0.263-1.139,0.393-1.79,0.393c-0.4,0-0.775-0.047-1.126-0.143c-0.352-0.095-0.651-0.219-0.898-0.375
			c-0.246-0.154-0.457-0.314-0.631-0.48c-0.174-0.164-0.404-0.412-0.689-0.741v0.257c0,0.487-0.117,0.856-0.352,1.107
			c-0.233,0.25-0.531,0.374-0.893,0.374c-0.367,0-0.66-0.124-0.878-0.374c-0.219-0.251-0.328-0.62-0.328-1.107v-11.322
			c0-0.525,0.106-0.923,0.317-1.191c0.212-0.269,0.509-0.403,0.889-0.403c0.399,0,0.706,0.128,0.921,0.384
			C365.518,762.01,365.626,762.375,365.626,762.85z M365.75,770.553c0,1.032,0.236,1.824,0.708,2.378
			c0.472,0.555,1.091,0.833,1.857,0.833c0.652,0,1.214-0.283,1.686-0.851c0.472-0.567,0.708-1.379,0.708-2.436
			c0-0.684-0.097-1.273-0.294-1.767c-0.197-0.494-0.475-0.876-0.835-1.145c-0.361-0.268-0.783-0.403-1.264-0.403
			c-0.494,0-0.935,0.135-1.32,0.403c-0.386,0.269-0.69,0.658-0.912,1.168C365.861,769.243,365.75,769.85,365.75,770.553z"/>
		<path style="fill:#2199A1;" d="M376.672,776.09l0.237-0.58l-3.191-8.035c-0.196-0.461-0.295-0.798-0.295-1.007
			c0-0.222,0.058-0.427,0.171-0.616c0.114-0.191,0.271-0.343,0.47-0.456c0.2-0.115,0.407-0.172,0.623-0.172
			c0.373,0,0.655,0.119,0.846,0.357c0.19,0.237,0.357,0.577,0.503,1.021l2.194,6.383l2.08-5.937c0.164-0.479,0.313-0.857,0.446-1.13
			c0.133-0.273,0.273-0.456,0.422-0.55c0.148-0.096,0.359-0.144,0.632-0.144c0.197,0,0.385,0.052,0.565,0.157
			c0.18,0.104,0.319,0.245,0.417,0.423c0.098,0.177,0.148,0.363,0.148,0.56c-0.026,0.12-0.066,0.291-0.124,0.514
			c-0.058,0.221-0.126,0.447-0.208,0.674l-3.381,8.853c-0.292,0.778-0.577,1.389-0.855,1.832c-0.279,0.443-0.647,0.785-1.106,1.021
			c-0.46,0.238-1.078,0.357-1.857,0.357c-0.759,0-1.33-0.082-1.708-0.246c-0.381-0.166-0.57-0.467-0.57-0.903
			c0-0.297,0.089-0.527,0.271-0.689c0.18-0.161,0.448-0.243,0.801-0.243c0.14,0,0.276,0.02,0.409,0.059
			c0.164,0.037,0.307,0.057,0.427,0.057c0.297,0,0.532-0.044,0.704-0.134c0.17-0.088,0.324-0.241,0.46-0.461
			C376.337,776.836,376.495,776.514,376.672,776.09z"/>
	</g>
	<g>
		<path style="fill:#2199A1;" d="M414.235,765.449h0.618v-0.778c0-0.814,0.1-1.457,0.307-1.938c0.204-0.479,0.556-0.826,1.047-1.045
			c0.49-0.217,1.163-0.326,2.017-0.326c1.52,0,2.273,0.367,2.273,1.114c0,0.238-0.079,0.444-0.24,0.615
			c-0.154,0.169-0.343,0.256-0.558,0.256c-0.1,0-0.278-0.019-0.527-0.06c-0.237-0.033-0.452-0.056-0.623-0.056
			c-0.468,0-0.767,0.141-0.905,0.415c-0.127,0.275-0.195,0.669-0.195,1.185v0.617h0.633c0.991,0,1.481,0.297,1.481,0.896
			c0,0.419-0.127,0.69-0.393,0.805c-0.262,0.114-0.624,0.171-1.089,0.171h-0.633v6.871c0,0.511-0.12,0.9-0.369,1.168
			c-0.241,0.273-0.554,0.406-0.942,0.406c-0.367,0-0.671-0.134-0.918-0.406c-0.244-0.268-0.364-0.657-0.364-1.168v-6.871h-0.714
			c-0.389,0-0.683-0.084-0.893-0.262c-0.209-0.171-0.315-0.399-0.315-0.678C412.931,765.756,413.366,765.449,414.235,765.449"/>
		<path style="fill:#2199A1;" d="M422.724,772.023v2.168c0,0.524-0.133,0.919-0.374,1.18c-0.247,0.266-0.559,0.395-0.938,0.395
			c-0.382,0-0.688-0.131-0.927-0.4c-0.236-0.264-0.36-0.656-0.36-1.174v-7.223c0-1.166,0.42-1.749,1.261-1.749
			c0.434,0,0.743,0.135,0.934,0.408c0.19,0.273,0.295,0.674,0.317,1.208c0.308-0.534,0.624-0.935,0.948-1.208
			c0.332-0.273,0.763-0.408,1.31-0.408c0.549,0,1.072,0.135,1.585,0.408c0.516,0.273,0.771,0.637,0.771,1.085
			c0,0.315-0.11,0.58-0.326,0.781c-0.22,0.209-0.454,0.311-0.706,0.311c-0.1,0-0.331-0.063-0.692-0.18
			c-0.365-0.113-0.688-0.173-0.963-0.173c-0.38,0-0.692,0.102-0.932,0.298c-0.242,0.205-0.431,0.497-0.564,0.887
			c-0.129,0.395-0.219,0.865-0.272,1.404C422.747,770.583,422.724,771.245,422.724,772.023"/>
		<path style="fill:#2199A1;" d="M434.645,771.13h-5.074c0.009,0.588,0.124,1.11,0.354,1.559c0.235,0.446,0.54,0.786,0.925,1.017
			c0.385,0.228,0.804,0.34,1.268,0.34c0.311,0,0.593-0.033,0.85-0.111c0.254-0.069,0.505-0.185,0.745-0.341
			c0.242-0.152,0.46-0.318,0.664-0.5c0.202-0.175,0.467-0.416,0.79-0.719c0.135-0.113,0.324-0.174,0.568-0.174
			c0.269,0,0.481,0.074,0.649,0.222c0.166,0.147,0.243,0.351,0.243,0.617c0,0.235-0.089,0.508-0.268,0.819
			c-0.188,0.317-0.463,0.616-0.836,0.906c-0.374,0.285-0.839,0.527-1.398,0.714c-0.559,0.19-1.206,0.286-1.932,0.286
			c-1.671,0-2.964-0.473-3.887-1.422c-0.924-0.952-1.392-2.242-1.392-3.868c0-0.767,0.117-1.479,0.348-2.135
			c0.225-0.658,0.558-1.216,0.999-1.688c0.436-0.471,0.97-0.828,1.612-1.078c0.638-0.249,1.347-0.374,2.128-0.374
			c1.011,0,1.881,0.214,2.606,0.646c0.724,0.423,1.273,0.977,1.629,1.654c0.361,0.681,0.542,1.368,0.542,2.074
			c0,0.648-0.189,1.07-0.562,1.266C435.847,771.034,435.323,771.13,434.645,771.13 M429.571,769.656h4.701
			c-0.063-0.885-0.298-1.55-0.714-1.986c-0.418-0.442-0.959-0.66-1.641-0.66c-0.645,0-1.177,0.22-1.592,0.669
			C429.912,768.125,429.658,768.783,429.571,769.656"/>
		<path style="fill:#2199A1;" d="M445.432,771.13h-5.073c0.006,0.588,0.125,1.11,0.355,1.559c0.231,0.446,0.539,0.786,0.921,1.017
			c0.383,0.228,0.806,0.34,1.271,0.34c0.308,0,0.593-0.033,0.845-0.111c0.259-0.069,0.506-0.185,0.75-0.341
			c0.242-0.152,0.46-0.318,0.664-0.5c0.199-0.175,0.464-0.416,0.788-0.719c0.135-0.113,0.326-0.174,0.568-0.174
			c0.268,0,0.483,0.074,0.65,0.222c0.165,0.147,0.24,0.351,0.24,0.617c0,0.235-0.087,0.508-0.273,0.819
			c-0.177,0.317-0.455,0.616-0.83,0.906c-0.37,0.285-0.84,0.527-1.396,0.714c-0.558,0.19-1.208,0.286-1.935,0.286
			c-1.667,0-2.959-0.473-3.887-1.422c-0.924-0.952-1.389-2.242-1.389-3.868c0-0.767,0.116-1.479,0.348-2.135
			c0.227-0.658,0.559-1.216,0.996-1.688c0.436-0.471,0.973-0.828,1.614-1.078c0.638-0.249,1.351-0.374,2.129-0.374
			c1.009,0,1.878,0.214,2.613,0.646c0.72,0.423,1.266,0.977,1.621,1.654c0.359,0.681,0.545,1.368,0.545,2.074
			c0,0.648-0.191,1.07-0.561,1.266C446.632,771.034,446.108,771.13,445.432,771.13 M440.359,769.656h4.701
			c-0.063-0.885-0.304-1.55-0.715-1.986c-0.421-0.442-0.962-0.66-1.643-0.66c-0.646,0-1.176,0.22-1.593,0.669
			C440.697,768.125,440.443,768.783,440.359,769.656"/>
		<path style="fill:#2199A1;" d="M451.112,766.678v0.311c0.486-0.601,0.994-1.042,1.524-1.324c0.519-0.284,1.118-0.427,1.782-0.427
			c0.795,0,1.535,0.208,2.207,0.617c0.671,0.414,1.198,1.016,1.589,1.807c0.39,0.795,0.586,1.73,0.586,2.814
			c0,0.796-0.112,1.531-0.336,2.201c-0.224,0.668-0.537,1.227-0.929,1.68c-0.394,0.45-0.855,0.802-1.39,1.046
			c-0.542,0.241-1.111,0.363-1.728,0.363c-0.738,0-1.364-0.148-1.865-0.447c-0.503-0.292-0.982-0.733-1.441-1.306v3.893
			c0,1.136-0.416,1.71-1.244,1.71c-0.49,0-0.809-0.147-0.972-0.44c-0.151-0.299-0.233-0.724-0.233-1.291v-11.193
			c0-0.495,0.106-0.859,0.32-1.107c0.215-0.239,0.512-0.364,0.885-0.364c0.369,0,0.666,0.125,0.895,0.374
			C450.999,765.847,451.112,766.204,451.112,766.678 M456.196,770.446c0-0.685-0.107-1.273-0.315-1.763
			c-0.209-0.492-0.499-0.867-0.866-1.128c-0.367-0.263-0.782-0.396-1.232-0.396c-0.714,0-1.318,0.284-1.809,0.844
			c-0.492,0.566-0.739,1.396-0.739,2.493c0,1.026,0.244,1.833,0.735,2.406c0.487,0.573,1.086,0.858,1.813,0.858
			c0.429,0,0.83-0.126,1.197-0.372c0.371-0.253,0.665-0.627,0.884-1.127C456.085,771.759,456.196,771.154,456.196,770.446"/>
		<path style="fill:#2199A1;" d="M461.412,764.012c-0.362,0-0.669-0.114-0.923-0.335c-0.26-0.223-0.388-0.532-0.388-0.937
			c0-0.368,0.131-0.67,0.396-0.91c0.262-0.234,0.566-0.355,0.914-0.355c0.34,0,0.636,0.107,0.894,0.319
			c0.26,0.219,0.391,0.534,0.391,0.946c0,0.4-0.127,0.711-0.378,0.936C462.064,763.898,461.763,764.012,461.412,764.012
			 M462.696,766.691v7.502c0,0.516-0.124,0.908-0.37,1.172c-0.25,0.269-0.561,0.4-0.941,0.4c-0.381,0-0.685-0.134-0.928-0.406
			c-0.233-0.276-0.355-0.665-0.355-1.166v-7.428c0-0.51,0.122-0.895,0.355-1.154c0.243-0.265,0.547-0.392,0.928-0.392
			c0.381,0,0.691,0.127,0.941,0.392C462.572,765.871,462.696,766.233,462.696,766.691"/>
		<path style="fill:#2199A1;" d="M471.055,774.582l-2.284-3.766l-1.408,1.328v2.065c0,0.499-0.133,0.882-0.396,1.149
			c-0.257,0.273-0.566,0.406-0.906,0.406c-0.398,0-0.715-0.131-0.94-0.4c-0.227-0.264-0.344-0.656-0.344-1.174v-11.063
			c0-0.573,0.114-1.011,0.331-1.314c0.223-0.305,0.545-0.452,0.953-0.452c0.4,0,0.713,0.137,0.949,0.411
			c0.234,0.27,0.353,0.674,0.353,1.202v6.293l2.916-3.063c0.362-0.376,0.633-0.641,0.827-0.778c0.189-0.139,0.419-0.208,0.689-0.208
			c0.326,0,0.594,0.104,0.815,0.309c0.211,0.206,0.32,0.466,0.32,0.773c0,0.379-0.353,0.889-1.055,1.522l-1.377,1.263l2.659,4.183
			c0.193,0.314,0.339,0.544,0.424,0.706c0.084,0.159,0.13,0.319,0.13,0.462c0,0.413-0.114,0.734-0.341,0.975
			c-0.225,0.236-0.524,0.354-0.886,0.354c-0.316,0-0.564-0.081-0.733-0.256C471.582,775.336,471.345,775.026,471.055,774.582"/>
		<path style="fill:#2199A1;" d="M476.691,775.765c-0.392,0-0.728-0.126-1.014-0.381c-0.284-0.249-0.429-0.605-0.429-1.065
			c0-0.386,0.138-0.719,0.41-0.995c0.274-0.279,0.607-0.419,1.008-0.419c0.397,0,0.735,0.14,1.022,0.412
			c0.279,0.275,0.422,0.612,0.422,1.002c0,0.452-0.143,0.808-0.422,1.06C477.402,775.639,477.07,775.765,476.691,775.765"/>
		<path style="fill:#2199A1;" d="M489.589,772.555c0,0.32-0.097,0.668-0.291,1.034c-0.191,0.37-0.488,0.718-0.886,1.05
			c-0.395,0.332-0.892,0.603-1.495,0.804c-0.601,0.202-1.28,0.307-2.03,0.307c-1.607,0-2.858-0.47-3.758-1.401
			c-0.896-0.936-1.346-2.19-1.346-3.76c0-1.067,0.204-2.006,0.619-2.824c0.407-0.814,1.004-1.447,1.781-1.894
			c0.779-0.448,1.716-0.67,2.794-0.67c0.674,0,1.288,0.098,1.853,0.295c0.561,0.195,1.032,0.451,1.425,0.759
			c0.387,0.315,0.685,0.644,0.89,0.992c0.207,0.352,0.308,0.681,0.308,0.987c0,0.308-0.113,0.571-0.343,0.787
			c-0.235,0.215-0.516,0.324-0.839,0.324c-0.219,0-0.397-0.057-0.541-0.166c-0.144-0.112-0.305-0.29-0.479-0.542
			c-0.317-0.479-0.646-0.842-0.996-1.079c-0.343-0.243-0.78-0.362-1.314-0.362c-0.762,0-1.384,0.298-1.854,0.897
			c-0.468,0.596-0.703,1.42-0.703,2.454c0,0.488,0.063,0.939,0.183,1.348c0.117,0.407,0.291,0.756,0.52,1.044
			c0.23,0.287,0.504,0.505,0.826,0.654c0.324,0.153,0.681,0.226,1.064,0.226c0.521,0,0.967-0.12,1.337-0.36
			c0.376-0.241,0.702-0.607,0.986-1.103c0.158-0.291,0.327-0.518,0.509-0.684c0.183-0.163,0.409-0.249,0.676-0.249
			c0.316,0,0.58,0.123,0.786,0.362C489.483,772.026,489.589,772.285,489.589,772.555"/>
		<path style="fill:#2199A1;" d="M500.78,770.495c0,0.769-0.122,1.484-0.355,2.139c-0.247,0.652-0.592,1.213-1.05,1.679
			c-0.455,0.469-1.002,0.828-1.632,1.08c-0.64,0.247-1.35,0.375-2.139,0.375c-0.785,0-1.493-0.128-2.121-0.383
			c-0.623-0.249-1.171-0.614-1.626-1.082c-0.461-0.477-0.809-1.034-1.052-1.677c-0.23-0.643-0.351-1.354-0.351-2.131
			c0-0.786,0.124-1.506,0.358-2.158c0.242-0.654,0.589-1.212,1.039-1.673c0.451-0.462,0.993-0.817,1.631-1.07
			c0.644-0.249,1.35-0.374,2.121-0.374c0.784,0,1.498,0.125,2.139,0.382c0.638,0.251,1.183,0.614,1.643,1.079
			c0.458,0.475,0.803,1.029,1.04,1.672C500.66,769.003,500.78,769.712,500.78,770.495 M498.176,770.495
			c0-1.059-0.234-1.881-0.698-2.469c-0.463-0.596-1.09-0.888-1.874-0.888c-0.508,0-0.955,0.132-1.343,0.394
			c-0.387,0.262-0.681,0.649-0.89,1.164c-0.209,0.514-0.316,1.113-0.316,1.799c0,0.679,0.103,1.268,0.31,1.773
			c0.208,0.511,0.502,0.897,0.886,1.166c0.386,0.267,0.835,0.404,1.353,0.404c0.784,0,1.411-0.296,1.874-0.892
			C497.942,772.356,498.176,771.536,498.176,770.495"/>
		<path style="fill:#2199A1;" d="M510.671,770.685v3.446c0,0.547-0.12,0.951-0.369,1.227c-0.25,0.273-0.571,0.408-0.977,0.408
			c-0.393,0-0.714-0.136-0.951-0.408c-0.247-0.276-0.372-0.681-0.372-1.227V770c0-0.653-0.021-1.162-0.063-1.524
			c-0.046-0.354-0.168-0.655-0.362-0.883c-0.196-0.235-0.509-0.352-0.931-0.352c-0.851,0-1.407,0.29-1.677,0.881
			c-0.268,0.576-0.406,1.413-0.406,2.507v3.502c0,0.538-0.122,0.946-0.361,1.224c-0.249,0.273-0.567,0.412-0.965,0.412
			c-0.395,0-0.717-0.139-0.967-0.412c-0.252-0.277-0.376-0.685-0.376-1.224v-7.419c0-0.489,0.111-0.86,0.335-1.111
			c0.229-0.257,0.526-0.382,0.89-0.382c0.356,0,0.651,0.123,0.892,0.355c0.236,0.238,0.354,0.566,0.354,0.984v0.245
			c0.453-0.535,0.935-0.932,1.444-1.181c0.517-0.26,1.082-0.386,1.713-0.386c0.651,0,1.211,0.131,1.678,0.39
			c0.47,0.261,0.853,0.655,1.16,1.177c0.439-0.528,0.909-0.923,1.41-1.181c0.5-0.257,1.053-0.386,1.662-0.386
			c0.706,0,1.321,0.143,1.834,0.419c0.51,0.278,0.893,0.68,1.148,1.195c0.221,0.473,0.33,1.21,0.33,2.217v5.063
			c0,0.547-0.122,0.951-0.367,1.227c-0.246,0.273-0.575,0.408-0.979,0.408c-0.395,0-0.714-0.139-0.965-0.412
			c-0.25-0.277-0.376-0.685-0.376-1.224v-4.361c0-0.559-0.023-1.003-0.069-1.338c-0.047-0.337-0.177-0.62-0.383-0.847
			c-0.212-0.228-0.53-0.344-0.953-0.344c-0.342,0-0.666,0.107-0.974,0.308c-0.307,0.198-0.547,0.477-0.721,0.813
			C510.77,768.8,510.671,769.575,510.671,770.685"/>
	</g>
	<g>
		<path style="fill:#2199A1;" d="M389.967,769.867c-0.002-0.005-0.002-0.01-0.002-0.018
			C389.965,769.857,389.965,769.862,389.967,769.867z"/>
		<path style="fill:#2199A1;" d="M390.098,770.696c0.002,0,0.002,0,0.003,0c-0.05-0.236-0.088-0.471-0.119-0.702
			C390.012,770.227,390.051,770.462,390.098,770.696z"/>
		<path style="fill:#2199A1;" d="M390.956,773.102c-0.006-0.01-0.011-0.022-0.017-0.033
			C390.945,773.081,390.95,773.092,390.956,773.102z"/>
		<path style="fill:#2199A1;" d="M390.874,772.942c-0.022-0.044-0.044-0.09-0.065-0.134
			C390.83,772.855,390.852,772.898,390.874,772.942z"/>
		<path style="fill:#2199A1;" d="M390.339,771.623c0.127,0.4,0.28,0.788,0.457,1.158c-0.18-0.378-0.33-0.767-0.454-1.158
			C390.341,771.623,390.34,771.623,390.339,771.623z"/>
		<path style="fill:#2199A1;" d="M400.004,759.93c0.501,0,0.871,0.04,1.295,0.111l0.12-0.763c0,0-1.171-0.36-2.71-0.234
			l-0.121-0.415c0.479-0.101,0.838-0.526,0.838-1.034c0-0.582-0.474-1.054-1.057-1.054c-0.583,0-1.056,0.472-1.056,1.054
			c0,0.508,0.358,0.934,0.836,1.034l0.134,0.463c-1.634,0.225-2.935,0.862-2.935,0.862l0.23,0.705
			c0.989-0.329,1.846-0.529,2.624-0.613C398.964,759.965,399.537,759.93,400.004,759.93z"/>
		<path style="fill:#2199A1;" d="M390.936,763.789l0.006-0.008c0.039-0.05,0.076-0.097,0.113-0.143l-0.313-0.226l-0.488-0.356
			c-0.027,0.038-0.795,0.744-1.401,2.048c-0.025-0.041-0.056-0.081-0.09-0.119c-0.182-0.198-0.436-0.3-0.758-0.294
			c-0.004,0-0.009,0-0.015,0c-0.2,0-0.337-0.066-0.427-0.147c0.089-0.113,0.143-0.256,0.143-0.413c0-0.368-0.3-0.669-0.669-0.669
			c-0.369,0-0.668,0.301-0.668,0.669c0,0.37,0.3,0.669,0.668,0.669c0.058,0,0.113-0.01,0.167-0.021
			c0.165,0.183,0.425,0.342,0.808,0.334c0.197-0.002,0.341,0.049,0.438,0.155c0.111,0.121,0.148,0.296,0.16,0.428
			c-0.001,0.002-0.001,0.005-0.003,0.005c-0.435,1.19-0.311,2.67-0.311,2.67l1.057,0.042c0.021-0.539,0.099-1.482,0.372-2.23
			C390.25,764.733,390.91,763.827,390.936,763.789z"/>
		<path style="fill:#2199A1;" d="M409.204,760.814c-0.368,0-0.669,0.299-0.669,0.669c0,0.058,0.009,0.112,0.023,0.165
			c-0.184,0.166-0.343,0.428-0.337,0.81c0.003,0.197-0.048,0.34-0.154,0.436c-0.085,0.075-0.191,0.115-0.296,0.141
			c-0.787-1.103-1.756-1.775-1.756-1.775l-0.759,0.813c0.573,0.521,1.159,1.175,1.729,1.99c0.394,0.564,0.799,1.29,1.136,2.015
			l1.024-0.486c0,0-0.468-1.155-1.126-2.191c0.114-0.04,0.23-0.102,0.331-0.192c0.2-0.181,0.299-0.437,0.293-0.758
			c-0.002-0.208,0.066-0.349,0.148-0.441c0.114,0.087,0.257,0.143,0.412,0.143c0.371,0,0.67-0.3,0.67-0.669
			C409.874,761.113,409.575,760.814,409.204,760.814z"/>
		<path style="fill:#2199A1;" d="M406.546,770.016c-1.409,0.687-3.728,1.594-6.781,2.02c-1.198,0.166-2.359,0.227-3.428,0.227
			c-1.391,0-2.62-0.104-3.563-0.223c-1.076-0.136-1.917-0.302-2.432-0.418c0.124,0.392,0.273,0.78,0.454,1.158
			c0.003,0.01,0.008,0.021,0.013,0.027c0.022,0.044,0.043,0.09,0.065,0.134c0.022,0.044,0.043,0.087,0.065,0.127
			c0.006,0.012,0.011,0.023,0.017,0.033c0.303,0.57,0.667,1.095,1.081,1.549c1.44,1.575,2.907,1.824,2.921,1.826l0.023,0.003
			l0.021,0.008c0.013,0.005,1.314,0.425,3.292,0.425c1.945,0,3.854-0.393,5.674-1.167c1.348-0.689,2.622-1.736,3.254-2.67
			c0.488-0.723,0.841-1.493,1.05-2.294c0.111-0.426,0.199-1.107,0.147-1.825C408.022,769.223,407.395,769.603,406.546,770.016z"/>
		<path style="fill:#2199A1;" d="M391.389,764.123c-0.041,0.06-0.652,0.925-1.135,2.253c-0.362,0.995-0.346,2.443-0.346,2.46v0.003
			c0,0.34,0.019,0.677,0.057,1.011c0,0.008,0,0.013,0.002,0.018c0.004,0.043,0.011,0.084,0.015,0.127
			c0.03,0.231,0.069,0.466,0.119,0.702c0.7,0.178,4.878,1.152,9.548,0.502c2.927-0.407,5.149-1.273,6.499-1.927
			c1.121-0.544,1.842-1.036,2.12-1.238c-0.277-1.028-1.042-2.641-1.743-3.646c-2.005-2.865-4.167-3.601-5.277-3.783
			c-0.424-0.069-0.763-0.109-1.243-0.109c-0.447,0-1.002,0.036-1.743,0.114c-0.743,0.077-1.572,0.272-2.532,0.596
			c-1.348,0.451-2.567,1.159-3.527,2.048l-0.033,0.03C392.027,763.413,391.73,763.688,391.389,764.123z M403.659,763.456
			c0.961,0,1.743,0.781,1.743,1.743c0,0.962-0.782,1.744-1.743,1.744c-0.962,0-1.742-0.782-1.742-1.744
			C401.917,764.237,402.697,763.456,403.659,763.456z M395.417,763.386c1.557,0,2.817,1.262,2.817,2.817
			c0,1.556-1.26,2.814-2.817,2.814c-1.555,0-2.816-1.259-2.816-2.814C392.601,764.648,393.862,763.386,395.417,763.386z"/>
	</g>
</g>
</svg>
